<svg version="1.1" id="Layer_1" xmlns="http://www.w3.org/2000/svg" xmlns:xlink="http://www.w3.org/1999/xlink" x="0px" y="0px"
	 width="100%" viewBox="0 0 512 512" enable-background="new 0 0 512 512" xml:space="preserve">
<path fill="#000000" opacity="1.000000" stroke="none" 
	d="
M229.000000,513.000000 
	C152.685165,513.000000 76.870331,513.000000 1.055501,513.000000 
	C1.037000,512.851868 1.002283,512.703735 1.002281,512.555603 
	C0.999992,342.097198 1.000000,171.638809 1.000000,1.090205 
	C171.564865,1.090205 342.129791,1.090205 512.847351,1.090205 
	C512.847351,171.666565 512.847351,342.333252 512.847351,513.000000 
	C418.453583,513.000000 323.976776,513.000000 229.000000,513.000000 
M293.926117,338.958740 
	C294.948425,339.639252 295.963745,340.899109 296.994141,340.911591 
	C308.571564,341.051880 320.151245,341.000305 332.596191,341.000305 
	C317.967010,321.309875 303.866852,302.331482 289.437988,282.910675 
	C299.077972,280.257446 306.984283,275.901428 313.239716,268.901184 
	C325.871307,254.765594 329.138824,237.693069 327.736450,219.578690 
	C325.865601,195.413162 312.592712,179.207291 289.100433,176.203598 
	C267.121613,173.393417 244.722916,173.866867 222.258148,172.884216 
	C222.258148,229.680634 222.258148,285.208313 222.258148,340.709045 
	C232.415268,340.709045 242.306610,340.709045 252.888550,340.709045 
	C252.888550,321.007965 252.888550,301.595337 252.888550,281.054993 
	C266.934692,300.876556 280.204224,319.602142 293.926117,338.958740 
M169.404037,331.153992 
	C170.686005,334.384064 171.967972,337.614136 173.222046,340.773956 
	C183.971313,340.773956 194.551193,340.773956 205.520294,340.773956 
	C204.969971,339.232483 204.590729,337.995544 204.095139,336.807129 
	C181.543716,282.727814 158.990143,228.649414 136.375824,174.596420 
	C135.805237,173.232635 134.552155,172.154358 133.617386,170.942932 
	C132.718307,172.193939 131.539383,173.328003 130.960785,174.712921 
	C113.237091,217.135391 95.575119,259.583649 77.896751,302.025055 
	C72.552727,314.854767 67.188622,327.676086 61.624035,341.003448 
	C72.536667,341.003448 82.825371,341.091492 93.107559,340.872864 
	C94.184586,340.849976 95.710381,339.210236 96.198853,337.989044 
	C98.967903,331.066254 101.484421,324.042450 104.112595,316.984070 
	C124.085274,316.984070 143.883102,316.984070 163.939377,316.984070 
	C165.664871,321.478729 167.384888,325.959106 169.404037,331.153992 
M411.151001,243.411682 
	C405.077026,239.071640 398.479858,235.294785 393.055450,230.255569 
	C385.491852,223.229095 384.149353,213.470413 388.391174,205.677963 
	C392.565063,198.010437 400.766602,194.863541 411.333191,196.906281 
	C420.370819,198.653442 427.331329,203.877136 433.768677,210.632706 
	C438.273407,202.491730 442.668060,194.549713 447.260437,186.250336 
	C426.506927,170.003372 404.096771,166.456787 379.954193,175.708725 
	C366.882019,180.718262 359.050232,191.007935 356.240814,204.542786 
	C351.879059,225.556351 357.950104,243.204300 375.508911,255.969269 
	C385.855377,263.490997 396.959076,269.963501 407.562347,277.143982 
	C410.966217,279.449036 414.315887,282.134399 416.903473,285.290863 
	C426.481140,296.974121 420.525543,313.609680 405.804962,316.897217 
	C398.031036,318.633392 390.407318,317.750793 383.455933,314.139343 
	C376.352783,310.449066 369.688202,305.914673 362.690369,301.664001 
	C359.119751,309.006012 355.147888,317.172943 351.241730,325.204895 
	C363.131104,337.239410 384.895233,344.673950 403.388397,343.596558 
	C414.877960,342.927185 425.987549,341.028015 435.404236,333.997009 
	C455.775818,318.786591 459.003754,286.743896 442.429932,266.645172 
	C434.076050,256.514496 422.585846,250.614075 411.151001,243.411682 
z"/>
<path fill="#FCFCFC" opacity="1.000000" stroke="none" 
	d="
M293.699921,338.643250 
	C280.204224,319.602142 266.934692,300.876556 252.888550,281.054993 
	C252.888550,301.595337 252.888550,321.007965 252.888550,340.709045 
	C242.306610,340.709045 232.415268,340.709045 222.258148,340.709045 
	C222.258148,285.208313 222.258148,229.680634 222.258148,172.884216 
	C244.722916,173.866867 267.121613,173.393417 289.100433,176.203598 
	C312.592712,179.207291 325.865601,195.413162 327.736450,219.578690 
	C329.138824,237.693069 325.871307,254.765594 313.239716,268.901184 
	C306.984283,275.901428 299.077972,280.257446 289.437988,282.910675 
	C303.866852,302.331482 317.967010,321.309875 332.596191,341.000305 
	C320.151245,341.000305 308.571564,341.051880 296.994141,340.911591 
	C295.963745,340.899109 294.948425,339.639252 293.699921,338.643250 
M252.513138,206.501587 
	C252.513138,225.941895 252.513138,245.382187 252.513138,265.132507 
	C258.105713,265.132507 263.236115,265.339111 268.343872,265.086945 
	C277.350006,264.642334 284.832581,260.762390 289.947845,253.394196 
	C299.049438,240.283981 299.289062,226.057327 293.755829,211.565033 
	C291.635040,206.010483 287.126556,202.468735 281.623932,200.395538 
	C272.184143,196.838943 262.397766,197.951370 252.513107,197.918533 
	C252.513107,200.843674 252.513107,203.173065 252.513138,206.501587 
z"/>
<path fill="#FCFCFC" opacity="1.000000" stroke="none" 
	d="
M169.254471,330.796753 
	C167.384888,325.959106 165.664871,321.478729 163.939377,316.984070 
	C143.883102,316.984070 124.085274,316.984070 104.112595,316.984070 
	C101.484421,324.042450 98.967903,331.066254 96.198853,337.989044 
	C95.710381,339.210236 94.184586,340.849976 93.107559,340.872864 
	C82.825371,341.091492 72.536667,341.003448 61.624035,341.003448 
	C67.188622,327.676086 72.552727,314.854767 77.896751,302.025055 
	C95.575119,259.583649 113.237091,217.135391 130.960785,174.712921 
	C131.539383,173.328003 132.718307,172.193939 133.617386,170.942932 
	C134.552155,172.154358 135.805237,173.232635 136.375824,174.596420 
	C158.990143,228.649414 181.543716,282.727814 204.095139,336.807129 
	C204.590729,337.995544 204.969971,339.232483 205.520294,340.773956 
	C194.551193,340.773956 183.971313,340.773956 173.222046,340.773956 
	C171.967972,337.614136 170.686005,334.384064 169.254471,330.796753 
M123.918510,263.391968 
	C120.262451,273.269897 116.606392,283.147827 112.927925,293.086273 
	C127.177132,293.086273 140.859207,293.086273 154.683578,293.086273 
	C147.429214,273.739349 140.330200,254.806732 133.352509,236.197678 
	C130.341064,244.818741 127.228897,253.728165 123.918510,263.391968 
z"/>
<path fill="#FCFCFC" opacity="1.000000" stroke="none" 
	d="
M411.451477,243.618271 
	C422.585846,250.614075 434.076050,256.514496 442.429932,266.645172 
	C459.003754,286.743896 455.775818,318.786591 435.404236,333.997009 
	C425.987549,341.028015 414.877960,342.927185 403.388397,343.596558 
	C384.895233,344.673950 363.131104,337.239410 351.241730,325.204895 
	C355.147888,317.172943 359.119751,309.006012 362.690369,301.664001 
	C369.688202,305.914673 376.352783,310.449066 383.455933,314.139343 
	C390.407318,317.750793 398.031036,318.633392 405.804962,316.897217 
	C420.525543,313.609680 426.481140,296.974121 416.903473,285.290863 
	C414.315887,282.134399 410.966217,279.449036 407.562347,277.143982 
	C396.959076,269.963501 385.855377,263.490997 375.508911,255.969269 
	C357.950104,243.204300 351.879059,225.556351 356.240814,204.542786 
	C359.050232,191.007935 366.882019,180.718262 379.954193,175.708725 
	C404.096771,166.456787 426.506927,170.003372 447.260437,186.250336 
	C442.668060,194.549713 438.273407,202.491730 433.768677,210.632706 
	C427.331329,203.877136 420.370819,198.653442 411.333191,196.906281 
	C400.766602,194.863541 392.565063,198.010437 388.391174,205.677963 
	C384.149353,213.470413 385.491852,223.229095 393.055450,230.255569 
	C398.479858,235.294785 405.077026,239.071640 411.451477,243.618271 
z"/>
<path fill="#010101" opacity="1.000000" stroke="none" 
	d="
M252.513123,206.002014 
	C252.513107,203.173065 252.513107,200.843674 252.513107,197.918533 
	C262.397766,197.951370 272.184143,196.838943 281.623932,200.395538 
	C287.126556,202.468735 291.635040,206.010483 293.755829,211.565033 
	C299.289062,226.057327 299.049438,240.283981 289.947845,253.394196 
	C284.832581,260.762390 277.350006,264.642334 268.343872,265.086945 
	C263.236115,265.339111 258.105713,265.132507 252.513138,265.132507 
	C252.513138,245.382187 252.513138,225.941895 252.513123,206.002014 
z"/>
<path fill="#030303" opacity="1.000000" stroke="none" 
	d="
M124.017624,263.014771 
	C127.228897,253.728165 130.341064,244.818741 133.352509,236.197678 
	C140.330200,254.806732 147.429214,273.739349 154.683578,293.086273 
	C140.859207,293.086273 127.177132,293.086273 112.927925,293.086273 
	C116.606392,283.147827 120.262451,273.269897 124.017624,263.014771 
z"/>
</svg>